<svg width="26" height="29" viewBox="0 0 26 29" fill="none" xmlns="http://www.w3.org/2000/svg">
<g filter="url(#filter0_d_19_142)">
<path d="M5 20L21 20M18 7H18.5C18.9647 7 19.197 7 19.3902 7.03843C20.1836 7.19624 20.8038 7.81644 20.9616 8.60982C21 8.80302 21 9.03535 21 9.5C21 9.96466 21 10.197 20.9616 10.3902C20.8038 11.1836 20.1836 11.8038 19.3902 11.9616C19.197 12 18.9647 12 18.5 12H18M11.5 17C10.1055 17 9.40821 17 8.83278 16.8619C7.00453 16.4229 5.57708 14.9955 5.13815 13.1672C5 12.5918 5 11.8945 5 10.5L5 7.2C5 6.0799 5 5.51984 5.21799 5.09202C5.40973 4.7157 5.71569 4.40974 6.09202 4.21799C6.51984 4 7.0799 4 8.2 4L14.8 4C15.9201 4 16.4802 4 16.908 4.21799C17.2843 4.40973 17.5903 4.71569 17.782 5.09202C18 5.51984 18 6.07989 18 7.2V10.5C18 11.8945 18 12.5918 17.8619 13.1672C17.4229 14.9955 15.9955 16.4229 14.1672 16.8619C13.5918 17 12.8945 17 11.5 17Z" stroke="#F02D3D" stroke-width="2" stroke-linecap="round" stroke-linejoin="round"/>
</g>
<defs>
<filter id="filter0_d_19_142" x="-3" y="0" width="32" height="32" filterUnits="userSpaceOnUse" color-interpolation-filters="sRGB">
<feFlood flood-opacity="0" result="BackgroundImageFix"/>
<feColorMatrix in="SourceAlpha" type="matrix" values="0 0 0 0 0 0 0 0 0 0 0 0 0 0 0 0 0 0 127 0" result="hardAlpha"/>
<feOffset dy="4"/>
<feGaussianBlur stdDeviation="2"/>
<feComposite in2="hardAlpha" operator="out"/>
<feColorMatrix type="matrix" values="0 0 0 0 0 0 0 0 0 0 0 0 0 0 0 0 0 0 0.25 0"/>
<feBlend mode="normal" in2="BackgroundImageFix" result="effect1_dropShadow_19_142"/>
<feBlend mode="normal" in="SourceGraphic" in2="effect1_dropShadow_19_142" result="shape"/>
</filter>
</defs>
</svg>
