<svg width="26" height="30" viewBox="0 0 26 30" fill="none" xmlns="http://www.w3.org/2000/svg">
<g filter="url(#filter0_d_19_148)">
<path d="M7 21C7 21.5523 7.44772 22 8 22C8.55228 22 9 21.5523 9 21H7ZM9 3C9 2.44772 8.55228 2 8 2C7.44772 2 7 2.44772 7 3H9ZM16 21C16 21.5523 16.4477 22 17 22C17.5523 22 18 21.5523 18 21H16ZM17 3V2C16.4477 2 16 2.44772 16 3H17ZM12 3C12 2.44772 11.5523 2 11 2C10.4477 2 10 2.44772 10 3H12ZM6 3C6 2.44772 5.55228 2 5 2C4.44772 2 4 2.44772 4 3H6ZM17 12C16.4477 12 16 12.4477 16 13C16 13.5523 16.4477 14 17 14V12ZM9 21V3H7V21H9ZM18 21V3H16V21H18ZM10 3V8H12V3H10ZM6 8V3H4V8H6ZM8 10C6.89543 10 6 9.10457 6 8H4C4 10.2091 5.79086 12 8 12V10ZM10 8C10 9.10457 9.10457 10 8 10V12C10.2091 12 12 10.2091 12 8H10ZM17 14C19.7614 14 22 11.7614 22 9H20C20 10.6569 18.6569 12 17 12V14ZM17 4C18.6569 4 20 5.34315 20 7H22C22 4.23858 19.7614 2 17 2V4ZM20 7V9H22V7H20Z" fill="#CEE5BC"/>
</g>
<defs>
<filter id="filter0_d_19_148" x="-3" y="0" width="32" height="32" filterUnits="userSpaceOnUse" color-interpolation-filters="sRGB">
<feFlood flood-opacity="0" result="BackgroundImageFix"/>
<feColorMatrix in="SourceAlpha" type="matrix" values="0 0 0 0 0 0 0 0 0 0 0 0 0 0 0 0 0 0 127 0" result="hardAlpha"/>
<feOffset dy="4"/>
<feGaussianBlur stdDeviation="2"/>
<feComposite in2="hardAlpha" operator="out"/>
<feColorMatrix type="matrix" values="0 0 0 0 0 0 0 0 0 0 0 0 0 0 0 0 0 0 0.25 0"/>
<feBlend mode="normal" in2="BackgroundImageFix" result="effect1_dropShadow_19_148"/>
<feBlend mode="normal" in="SourceGraphic" in2="effect1_dropShadow_19_148" result="shape"/>
</filter>
</defs>
</svg>
